# xmcd
#
# Track frame offsets: 
#        187
#        13147
#        24242
#        37285
#        49807
#        63212
#        74977
#        86887
#        98430
#        111415
#        122707
#        133865
#        144567
#        158250
#        171435
#        184370
#        204785
#        221262
#
# Disc length: 3124 seconds
#
# Revision: 3
# Processed by: cddbd v1.5.2PL0 Copyright (c) Steve Scherf et al.
# Submitted via: ExactAudioCopy v1.0b1
#
DISCID=080c3212
DTITLE=Jimmy Reed - Compact Command Performances 18 Greatest Hits
DYEAR=1986
DGENRE=blues
TTITLE0=Honest I Do
TTITLE1=Baby What You Want Me To Do
TTITLE2=Shame Shame Shame
TTITLE3=Bright Lights Big City
TTITLE4=The Sun Is Shinin'
TTITLE5=Close Together
TTITLE6=Hush Hush
TTITLE7=Good Lover
TTITLE8=Big Boss Man
TTITLE9=Aw Shucks Hush Your Mouth
TTITLE10=Down In Virginia
TTITLE11=Found Love
TTITLE12=Mary Mary
TTITLE13=Oh John
TTITLE14=Caress Me Baby
TTITLE15=You Can Run But You Can't Hide
TTITLE16=Cold And Lonesome
TTITLE17=Upside The Wall
EXTD=MOTD 9065\n\nSubmitted 6/5/97\n[Jmccoy@efn.org]
EXTT0=
EXTT1=
EXTT2=
EXTT3=
EXTT4=
EXTT5=
EXTT6=
EXTT7=
EXTT8=
EXTT9=
EXTT10=
EXTT11=
EXTT12=
EXTT13=
EXTT14=
EXTT15=
EXTT16=
EXTT17=
PLAYORDER=
